{
.appVersion = "1057";
copyright = "Copyright 2017 Google Inc. All Rights Reserved.";
customParameters = (
{
name = glyphOrder;
value = (
.notdef,
NULL,
CR,
space,
uni00A0,
uni1A00,
uni1A01,
uni1A02,
uni1A03,
uni1A04,
uni1A05,
uni1A06,
uni1A07,
uni1A08,
uni1A09,
uni1A0A,
uni1A0B,
uni1A0C,
uni1A0D,
uni1A0E,
uni1A0F,
uni1A10,
uni1A11,
uni1A12,
uni1A13,
uni1A14,
uni1A15,
uni1A16,
uni1A17,
uni1A18,
uni1A19,
uni1A1A,
uni1A1B,
uni1A1E,
uni1A1F,
iya.ligature,
uniA9CF,
uni200B,
uni200C,
uni200D,
uni25CC
);
},
{
name = description;
value = "Designed by Monotype design team.";
},
{
name = license;
value = "This Font Software is licensed under the SIL Open Font License, Version 1.1. This Font Software is distributed on an \"AS IS\" BASIS, WITHOUT WARRANTIES OR CONDITIONS OF ANY KIND, either express or implied. See the SIL Open Font License for the specific language, permissions and limitations governing your use of this Font Software.";
},
{
name = licenseURL;
value = "http://scripts.sil.org/OFL";
},
{
name = vendorID;
value = GOOG;
},
{
name = unicodeRanges;
value = (
0,
1,
31,
45,
96
);
},
{
name = trademark;
value = "Noto is a trademark of Google Inc.";
},
{
name = "Has WWS Names";
value = 1;
},
{
name = versionString;
value = "Version 2.000";
},
{
name = fsType;
value = (
);
},
{
name = codePageRanges;
value = (
"1252"
);
},
{
name = "Don't use Production Names";
value = 1;
}
);
date = "2017-04-27 15:57:01 +0000";
designer = "Monotype Design Team";
designerURL = "http://www.monotype.com/studio";
disablesAutomaticAlignment = 1;
disablesNiceNames = 1;
familyName = "Noto Sans Buginese";
fontMaster = (
{
alignmentZones = (
"{1069, 15}",
"{714, 15}",
"{536, 15}",
"{0, -15}",
"{-293, -15}"
);
ascender = 1069;
capHeight = 714;
customParameters = (
{
name = typoAscender;
value = 1069;
},
{
name = typoDescender;
value = -293;
},
{
name = typoLineGap;
value = 0;
},
{
name = winAscent;
value = 1069;
},
{
name = winDescent;
value = 293;
},
{
name = hheaAscender;
value = 1069;
},
{

glyphs = (
{
glyphname = .notdef;
lastChange = "2017-09-14 20:51:29 +0000";
layers = (
{
layerId = UUID0;
paths = (
{
closed = 1;
nodes = (
"505 0 LINE",
"505 714 LINE",
"94 714 LINE",
"94 0 LINE"
);
},
{
closed = 1;
nodes = (
"145 663 LINE",
"454 663 LINE",
"454 51 LINE",
"145 51 LINE"
);
}
);
width = 600;
}
);
},
{
glyphname = uni1A00;
lastChange = "2017-09-14 20:51:29 +0000";
layers = (
{
layerId = UUID0;
paths = (
{
closed = 1;
nodes = (
"483 499 LINE",
"424 566 LINE",
"3 191 LINE",
"62 125 LINE"
);
},
{
closed = 1;
nodes = (
"675 374 LINE",
"615 441 LINE",
"195 67 LINE",
"255 1 LINE"
);
}
);
width = 677;
}
);
unicode = 1A00;
},
{
glyphname = uni1A01;
lastChange = "2017-09-14 20:51:29 +0000";
layers = (
{
layerId = UUID0;
paths = (
{
closed = 1;
nodes = (
"78 0 LINE",
"313 212 LINE SMOOTH",
"358 252 OFFCURVE",
"379 274 OFFCURVE",
"415 274 CURVE SMOOTH",
"450 274 OFFCURVE",
"471 250 OFFCURVE",
"515 200 CURVE SMOOTH",
"614 86 LINE SMOOTH",
"653 41 OFFCURVE",
"686 5 OFFCURVE",
"745 5 CURVE SMOOTH",
"797 5 OFFCURVE",
"825 24 OFFCURVE",
"871 64 CURVE SMOOTH",
"896 85 OFFCURVE",
"915 103 OFFCURVE",
"928 118 CURVE SMOOTH",
"955 149 OFFCURVE",
"969 169 OFFCURVE",
"969 219 CURVE SMOOTH",
"969 266 OFFCURVE",
"946 295 OFFCURVE",
"906 340 CURVE SMOOTH",
"647 634 LINE",
"591 585 LINE",
"852 286 LINE SMOOTH",
"868 267 OFFCURVE",
"879 251 OFFCURVE",
"879 224 CURVE SMOOTH",
"879 202 OFFCURVE",
"869 184 OFFCURVE",
"828 143 CURVE SMOOTH",
"808 123 OFFCURVE",
"777 96 OFFCURVE",
"740 96 CURVE SMOOTH",
"705 96 OFFCURVE",
"685 118 OFFCURVE",
"641 169 CURVE SMOOTH",
"539 286 LINE SMOOTH",
"487 345 OFFCURVE",
"457 364 OFFCURVE",
"409 364 CURVE SMOOTH",
"353 364 OFFCURVE",
"316 335 OFFCURVE",
"267 291 CURVE SMOOTH",
"19 66 LINE"
);
},
{
closed = 1;
nodes = (
"351 23 OFFCURVE",
"371 0 OFFCURVE",
"412 0 CURVE SMOOTH",
"447 0 OFFCURVE",
"475 20 OFFCURVE",
"475 68 CURVE SMOOTH",
"475 113 OFFCURVE",
"454 135 OFFCURVE",
"412 135 CURVE SMOOTH",
"371 135 OFFCURVE",
"351 113 OFFCURVE",
"351 68 CURVE SMOOTH"
);
}
);
width = 1046;
}
);
unicode = 1A01;
},
{
glyphname = uni1A02;
lastChange = "2017-09-14 20:51:29 +0000";
layers = (
{
layerId = UUID0;
paths = (
{
closed = 1;
nodes = (
"361 250 LINE",
"580 0 LINE",
"634 47 LINE",
"201 547 LINE",
"145 499 LINE",
"303 316 LINE",
"23 66 LINE",
"82 0 LINE"
);
}
);
width = 605;
}
);
unicode = 1A02;
},
{
glyphname = uni1A03;
lastChange = "2017-09-14 20:51:29 +0000";
layers = (
{
layerId = UUID0;
paths = (
{
closed = 1;
nodes = (
"634 54 LINE",
"480 227 LINE SMOOTH",
"445 266 OFFCURVE",
"416 297 OFFCURVE",
"367 301 CURVE",
"426 356 OFFCURVE",
"445 370 OFFCURVE",
"477 370 CURVE SMOOTH",
"512 370 OFFCURVE",
"536 342 OFFCURVE",
"579 292 CURVE SMOOTH",
"717 134 LINE",
"772 188 LINE",
"603 379 LINE SMOOTH",
"562 426 OFFCURVE",
"526 460 OFFCURVE",
"471 460 CURVE SMOOTH",
"415 460 OFFCURVE",
"378 430 OFFCURVE",
"329 386 CURVE SMOOTH",
"19 105 LINE",
"78 39 LINE",
"258 202 LINE SMOOTH",
"286 228 OFFCURVE",
"313 240 OFFCURVE",
"334 240 CURVE SMOOTH",
"369 240 OFFCURVE",
"393 213 OFFCURVE",
"436 164 CURVE SMOOTH",
"580 0 LINE"
);
}
);
width = 755;
}
);
unicode = 1A03;
},
{
glyphname = uni1A04;
lastChange = "2017-09-14 20:51:29 +0000";
layers = (
{
layerId = UUID0;
paths = (
{
closed = 1;
nodes = (
"313 212 LINE SMOOTH",
"357 253 OFFCURVE",
"380 274 OFFCURVE",
"415 274 CURVE SMOOTH",
"450 274 OFFCURVE",
"473 247 OFFCURVE",
"517 197 CURVE SMOOTH",
"614 86 LINE SMOOTH",
"654 41 OFFCURVE",
"686 5 OFFCURVE",
"745 5 CURVE SMOOTH",
"797 5 OFFCURVE",
"826 24 OFFCURVE",
"872 65 CURVE SMOOTH",
"897 87 OFFCURVE",
"914 103 OFFCURVE",
"928 118 CURVE SMOOTH",
"956 148 OFFCURVE",
"969 175 OFFCURVE",
"969 219 CURVE SMOOTH",
"969 266 OFFCURVE",
"946 295 OFFCURVE",
"906 340 CURVE SMOOTH",
"647 634 LINE",
"591 585 LINE",
"852 287 LINE SMOOTH",
"867 269 OFFCURVE",
"879 250 OFFCURVE",
"879 224 CURVE SMOOTH",
"879 201 OFFCURVE",
"868 184 OFFCURVE",
"829 144 CURVE SMOOTH",
"807 121 OFFCURVE",
"775 96 OFFCURVE",
"740 96 CURVE SMOOTH",
"705 96 OFFCURVE",
"682 122 OFFCURVE",
"638 172 CURVE SMOOTH",
"541 283 LINE SMOOTH",
"488 343 OFFCURVE",
"457 364 OFFCURVE",
"409 364 CURVE SMOOTH",
"353 364 OFFCURVE",
"316 335 OFFCURVE",
"267 291 CURVE SMOOTH",
"19 66 LINE",
"78 0 LINE"
);
}
);
width = 1046;
}
);
unicode = 1A04;
},
{
glyphname = uni1A05;
lastChange = "2017-09-14 20:51:29 +0000";
layers = (
{
layerId = UUID0;
paths = (
{
closed = 1;
nodes = (
"360 249 LINE",
"580 0 LINE",
"634 47 LINE",
"357 365 LINE SMOOTH",
"314 414 OFFCURVE",
"294 438 OFFCURVE",
"294 470 CURVE SMOOTH",
"294 495 OFFCURVE",
"313 522 OFFCURVE",
"350 553 CURVE SMOOTH",
"394 590 OFFCURVE",
"402 598 OFFCURVE",
"436 598 CURVE SMOOTH",
"468 598 OFFCURVE",
"494 569 OFFCURVE",
"532 526 CURVE SMOOTH",
"635 408 LINE",
"692 458 LINE",
"527 644 LINE SMOOTH",
"511 662 OFFCURVE",
"474 690 OFFCURVE",
"429 690 CURVE SMOOTH",
"375 690 OFFCURVE",
"344 665 OFFCURVE",
"292 621 CURVE SMOOTH",
"223 562 OFFCURVE",
"204 524 OFFCURVE",
"204 476 CURVE SMOOTH",
"204 427 OFFCURVE",
"232 397 OFFCURVE",
"269 353 CURVE SMOOTH",
"301 315 LINE",
"23 66 LINE",
"82 0 LINE"
);
}
);
width = 677;
}
);
unicode = 1A05;
},
{
glyphname = uni1A06;
lastChange = "2017-09-14 20:51:29 +0000";
layers = (
{
layerId = UUID0;
paths = (
{
closed = 1;
nodes = (
"491 0 OFFCURVE",
"528 29 OFFCURVE",
"577 73 CURVE SMOOTH",
"930 394 LINE",
"870 460 LINE",
"531 152 LINE SMOOTH",
"486 112 OFFCURVE",
"464 90 OFFCURVE",
"429 90 CURVE SMOOTH",
"394 90 OFFCURVE",
"371 118 OFFCURVE",
"328 167 CURVE SMOOTH",
"71 460 LINE",
"15 409 LINE",
"303 81 LINE SMOOTH",
"348 30 OFFCURVE",
"380 0 OFFCURVE",
"435 0 CURVE SMOOTH"
);
}
);
width = 945;
}
);
unicode = 1A06;
},
{
glyphname = uni1A07;
lastChange = "2017-09-14 20:51:29 +0000";
layers = (
{
layerId = UUID0;
paths = (
{
closed = 1;
nodes = (
"361 250 LINE",
"502 88 LINE SMOOTH",
"549 35 OFFCURVE",
"578 7 OFFCURVE",
"635 7 CURVE SMOOTH",
"691 7 OFFCURVE",
"734 41 OFFCURVE",
"783 88 CURVE SMOOTH",
"824 128 OFFCURVE",
"845 155 OFFCURVE",
"845 210 CURVE SMOOTH",
"845 253 OFFCURVE",
"829 282 OFFCURVE",
"782 335 CURVE SMOOTH",
"597 547 LINE",
"542 501 LINE",
"726 282 LINE SMOOTH",
"740 265 OFFCURVE",
"755 241 OFFCURVE",
"755 217 CURVE SMOOTH",
"755 183 OFFCURVE",
"744 170 OFFCURVE",
"706 138 CURVE SMOOTH",
"667 105 OFFCURVE",
"653 98 OFFCURVE",
"628 98 CURVE SMOOTH",
"593 98 OFFCURVE",
"566 125 OFFCURVE",
"528 169 CURVE SMOOTH",
"201 547 LINE",
"145 499 LINE",
"303 316 LINE",
"23 66 LINE",
"82 0 LINE"
);
}
);
width = 878;
}
);
unicode = 1A07;
},
{
glyphname = uni1A08;
lastChange = "2017-09-14 20:51:29 +0000";
layers = (
{
layerId = UUID0;
paths = (
{
closed = 1;
nodes = (
"414 308 LINE SMOOTH",
"458 349 OFFCURVE",
"481 370 OFFCURVE",
"516 370 CURVE SMOOTH",
"551 370 OFFCURVE",
"574 342 OFFCURVE",
"617 293 CURVE SMOOTH",
"874 0 LINE",
"930 50 LINE",
"647 373 LINE SMOOTH",
"600 426 OFFCURVE",
"568 460 OFFCURVE",
"510 460 CURVE SMOOTH",
"454 460 OFFCURVE",
"416 430 OFFCURVE",
"367 386 CURVE SMOOTH",
"15 66 LINE",
"75 0 LINE"
);
}
);
width = 945;
}
);
unicode = 1A08;
},
{
glyphname = uni1A0B;
lastChange = "2017-09-14 20:51:29 +0000";
layers = (
{
layerId = UUID0;
paths = (
{
closed = 1;
nodes = (
"313 212 LINE",
"357 253 OFFCURVE",
"380 274 OFFCURVE",
"415 274 CURVE SMOOTH",
"450 274 OFFCURVE",
"473 247 OFFCURVE",
"517 197 CURVE SMOOTH",
"614 86 LINE SMOOTH",
"654 41 OFFCURVE",
"686 5 OFFCURVE",
"745 5 CURVE SMOOTH",
"800 5 OFFCURVE",
"830 28 OFFCURVE",
"876 68 CURVE SMOOTH",
"899 88 OFFCURVE",
"914 103 OFFCURVE",
"928 118 CURVE SMOOTH",
"956 147 OFFCURVE",
"969 175 OFFCURVE",
"969 219 CURVE SMOOTH",
"969 266 OFFCURVE",
"946 295 OFFCURVE",
"906 340 CURVE SMOOTH",
"647 634 LINE",
"591 585 LINE",
"848 292 LINE SMOOTH",
"864 274 OFFCURVE",
"879 250 OFFCURVE",
"879 224 CURVE SMOOTH",
"879 206 OFFCURVE",
"871 186 OFFCURVE",
"842 157 CURVE SMOOTH",
"799 114 OFFCURVE",
"775 96 OFFCURVE",
"740 96 CURVE SMOOTH",
"705 96 OFFCURVE",
"681 123 OFFCURVE",
"638 172 CURVE SMOOTH",
"541 283 LINE SMOOTH",
"489 343 OFFCURVE",
"457 364 OFFCURVE",
"409 364 CURVE SMOOTH",
"353 364 OFFCURVE",
"316 335 OFFCURVE",
"267 291 CURVE SMOOTH",
"19 66 LINE",
"78 0 LINE"
);
},
{
closed = 1;
nodes = (
"569 35 LINE",
"462 155 LINE SMOOTH",
"453 165 OFFCURVE",
"437 187 OFFCURVE",
"413 187 CURVE SMOOTH",
"390 187 OFFCURVE",
"380 178 OFFCURVE",
"359 159 CURVE SMOOTH",
"259 65 LINE",
"319 0 LINE",
"396 70 LINE SMOOTH",
"402 75 OFFCURVE",
"408 82 OFFCURVE",
"418 82 CURVE SMOOTH",
"430 82 OFFCURVE",
"438 73 OFFCURVE",
"455 54 CURVE SMOOTH",
"513 -14 LINE"
);
}
);
width = 1046;
}
);
unicode = 1A0B;
},
{
glyphname = uni1A0C;
lastChange = "2017-09-14 20:51:29 +0000";
layers = (
{
layerId = UUID0;
paths = (
{
closed = 1;
nodes = (
"418 312 LINE SMOOTH",
"462 353 OFFCURVE",
"485 374 OFFCURVE",
"520 374 CURVE SMOOTH",
"555 374 OFFCURVE",
"579 346 OFFCURVE",
"622 297 CURVE SMOOTH",
"734 169 LINE",
"790 219 LINE",
"646 383 LINE SMOOTH",
"602 434 OFFCURVE",
"567 464 OFFCURVE",
"514 464 CURVE SMOOTH",
"458 464 OFFCURVE",
"421 435 OFFCURVE",
"372 391 CURVE SMOOTH",
"17 76 LINE",
"76 9 LINE"
);
},
{
closed = 1;
nodes = (
"784 -11 OFFCURVE",
"822 15 OFFCURVE",
"881 71 CURVE SMOOTH",
"911 99 OFFCURVE",
"931 120 OFFCURVE",
"941 133 CURVE SMOOTH",
"961 160 OFFCURVE",
"969 180 OFFCURVE",
"969 219 CURVE SMOOTH",
"969 266 OFFCURVE",
"946 295 OFFCURVE",
"906 340 CURVE SMOOTH",
"647 634 LINE",
"591 585 LINE",
"849 291 LINE SMOOTH",
"864 273 OFFCURVE",
"879 250 OFFCURVE",
"879 224 CURVE SMOOTH",
"879 193 OFFCURVE",
"849 163 OFFCURVE",
"817 134 CURVE SMOOTH",
"785 105 OFFCURVE",
"761 80 OFFCURVE",
"724 80 CURVE SMOOTH",
"689 80 OFFCURVE",
"666 107 OFFCURVE",
"623 156 CURVE SMOOTH",
"518 277 LINE",
"461 227 LINE",
"598 70 LINE SMOOTH",
"643 19 OFFCURVE",
"676 -11 OFFCURVE",
"730 -11 CURVE SMOOTH"
);
}
);
width = 1046;
}
);
unicode = 1A0C;
},
{
glyphname = uni1A0D;
lastChange = "2017-09-14 20:51:29 +0000";
layers = (
{
layerId = UUID0;
paths = (
{
closed = 1;
nodes = (
"391 291 LINE SMOOTH",
"447 342 OFFCURVE",
"477 365 OFFCURVE",
"518 365 CURVE SMOOTH",
"561 365 OFFCURVE",
"595 328 OFFCURVE",
"606 315 CURVE SMOOTH",
"669 244 LINE",
"570 153 LINE SMOOTH",
"543 129 OFFCURVE",
"513 113 OFFCURVE",
"484 113 CURVE SMOOTH",
"454 113 OFFCURVE",
"424 131 OFFCURVE",
"393 167 CURVE",
"337 117 LINE",
"392 57 OFFCURVE",
"419 23 OFFCURVE",
"489 23 CURVE SMOOTH",
"552 23 OFFCURVE",
"599 56 OFFCURVE",
"655 108 CURVE SMOOTH",
"743 190 LINE SMOOTH",
"761 207 OFFCURVE",
"770 220 OFFCURVE",
"770 229 CURVE SMOOTH",
"770 242 OFFCURVE",
"759 254 OFFCURVE",
"742 274 CURVE SMOOTH",
"629 401 LINE SMOOTH",
"593 441 OFFCURVE",
"552 456 OFFCURVE",
"512 456 CURVE SMOOTH",
"449 456 OFFCURVE",
"403 423 OFFCURVE",
"345 371 CURVE SMOOTH",
"17 76 LINE",
"76 9 LINE"
);
}
);
width = 784;
}
);
unicode = 1A0D;
},
{
glyphname = uni1A0E;
lastChange = "2017-09-14 20:51:29 +0000";
layers = (
{
layerId = UUID0;
paths = (
{
closed = 1;
nodes = (
"268 309 LINE SMOOTH",
"312 350 OFFCURVE",
"335 371 OFFCURVE",
"370 371 CURVE SMOOTH",
"401 371 OFFCURVE",
"425 350 OFFCURVE",
"461 309 CURVE SMOOTH",
"542 216 LINE SMOOTH",
"569 185 OFFCURVE",
"588 168 OFFCURVE",
"616 168 CURVE SMOOTH",
"644 168 OFFCURVE",
"664 180 OFFCURVE",
"700 213 CURVE SMOOTH",
"805 309 LINE SMOOTH",
"849 350 OFFCURVE",
"874 371 OFFCURVE",
"907 371 CURVE SMOOTH",
"942 371 OFFCURVE",
"965 342 OFFCURVE",
"1009 294 CURVE SMOOTH",
"1153 135 LINE",
"1206 180 LINE",
"1035 377 LINE SMOOTH",
"991 428 OFFCURVE",
"957 461 OFFCURVE",
"902 461 CURVE SMOOTH",
"845 461 OFFCURVE",
"808 432 OFFCURVE",
"759 387 CURVE SMOOTH",
"640 277 LINE SMOOTH",
"631 268 OFFCURVE",
"620 265 OFFCURVE",
"612 265 CURVE SMOOTH",
"593 265 OFFCURVE",
"584 282 OFFCURVE",
"558 311 CURVE SMOOTH",
"501 374 LINE SMOOTH",
"453 427 OFFCURVE",
"424 461 OFFCURVE",
"364 461 CURVE SMOOTH",
"308 461 OFFCURVE",
"271 431 OFFCURVE",
"222 387 CURVE SMOOTH",
"15 201 LINE",
"73 134 LINE"
);
},
{
closed = 1;
nodes = (
"695 0 OFFCURVE",
"744 30 OFFCURVE",
"793 79 CURVE SMOOTH",
"860 146 LINE",
"797 209 LINE",
"754 165 LINE SMOOTH",
"710 120 OFFCURVE",
"670 88 OFFCURVE",
"614 88 CURVE SMOOTH",
"579 88 OFFCURVE",
"543 109 OFFCURVE",
"506 152 CURVE SMOOTH",
"453 215 LINE",
"396 164 LINE",
"471 78 LINE SMOOTH",
"519 23 OFFCURVE",
"564 0 OFFCURVE",
"623 0 CURVE SMOOTH"
);
}
);
width = 1221;
}
);
unicode = 1A0E;
},
{
glyphname = uni1A0F;
lastChange = "2017-09-14 20:51:29 +0000";
layers = (
{
layerId = UUID0;
paths = (
{
closed = 1;
nodes = (
"414 308 LINE SMOOTH",
"458 349 OFFCURVE",
"481 370 OFFCURVE",
"516 370 CURVE SMOOTH",
"535 370 OFFCURVE",
"555 361 OFFCURVE",
"573 341 CURVE SMOOTH",
"629 279 LINE",
"395 66 LINE",
"455 0 LINE",
"688 212 LINE",
"874 0 LINE",
"930 50 LINE",
"743 262 LINE",
"794 308 LINE SMOOTH",
"839 348 OFFCURVE",
"861 370 OFFCURVE",
"896 370 CURVE SMOOTH",
"931 370 OFFCURVE",
"954 342 OFFCURVE",
"997 293 CURVE SMOOTH",
"1254 0 LINE",
"1310 50 LINE",
"1022 379 LINE SMOOTH",
"978 430 OFFCURVE",
"943 460 OFFCURVE",
"890 460 CURVE SMOOTH",
"845 460 OFFCURVE",
"819 446 OFFCURVE",
"781 413 CURVE SMOOTH",
"685 330 LINE",
"609 414 LINE SMOOTH",
"588 438 OFFCURVE",
"554 460 OFFCURVE",
"510 460 CURVE SMOOTH",
"454 460 OFFCURVE",
"416 430 OFFCURVE",
"367 386 CURVE SMOOTH",
"15 66 LINE",
"75 0 LINE"
);
}
);
width = 1325;
}
);
unicode = 1A0F;
},
{
glyphname = uni1A10;
lastChange = "2017-09-14 20:51:29 +0000";
layers = (
{
layerId = UUID0;
paths = (
{
closed = 1;
nodes = (
"272 232 LINE SMOOTH",
"313 280 OFFCURVE",
"328 295 OFFCURVE",
"349 295 CURVE SMOOTH",
"360 295 OFFCURVE",
"370 288 OFFCURVE",
"380 275 CURVE SMOOTH",
"506 108 LINE SMOOTH",
"547 54 OFFCURVE",
"570 21 OFFCURVE",
"615 21 CURVE SMOOTH",
"656 21 OFFCURVE",
"685 55 OFFCURVE",
"731 105 CURVE SMOOTH",
"846 232 LINE SMOOTH",
"886 277 OFFCURVE",
"900 295 OFFCURVE",
"923 295 CURVE SMOOTH",
"944 295 OFFCURVE",
"959 266 OFFCURVE",
"996 218 CURVE SMOOTH",
"1147 21 LINE",
"1204 64 LINE",
"1023 303 LINE SMOOTH",
"980 359 OFFCURVE",
"957 385 OFFCURVE",
"916 385 CURVE SMOOTH",
"879 385 OFFCURVE",
"847 366 OFFCURVE",
"798 311 CURVE SMOOTH",
"677 177 LINE SMOOTH",
"645 142 OFFCURVE",
"626 118 OFFCURVE",
"609 118 CURVE SMOOTH",
"588 118 OFFCURVE",
"570 146 OFFCURVE",
"538 187 CURVE SMOOTH",
"447 304 LINE SMOOTH",
"405 358 OFFCURVE",
"382 385 OFFCURVE",
"341 385 CURVE SMOOTH",
"304 385 OFFCURVE",
"274 366 OFFCURVE",
"224 311 CURVE SMOOTH",
"15 81 LINE",
"81 21 LINE"
);
},
{
closed = 1;
nodes = (
"372 20 OFFCURVE",
"400 40 OFFCURVE",
"400 88 CURVE SMOOTH",
"400 133 OFFCURVE",
"379 155 OFFCURVE",
"337 155 CURVE SMOOTH",
"296 155 OFFCURVE",
"276 133 OFFCURVE",
"276 88 CURVE SMOOTH",
"276 43 OFFCURVE",
"296 20 OFFCURVE",
"337 20 CURVE SMOOTH"
);
},
{
closed = 1;
nodes = (
"945 20 OFFCURVE",
"973 40 OFFCURVE",
"973 88 CURVE SMOOTH",
"973 133 OFFCURVE",
"952 155 OFFCURVE",
"910 155 CURVE SMOOTH",
"869 155 OFFCURVE",
"849 133 OFFCURVE",
"849 88 CURVE SMOOTH",
"849 43 OFFCURVE",
"869 20 OFFCURVE",
"910 20 CURVE SMOOTH"
);
}
);
width = 1219;
}
);
unicode = 1A10;
},
{
glyphname = uni1A11;
lastChange = "2017-09-14 20:51:29 +0000";
layers = (
{
layerId = UUID0;
paths = (
{
closed = 1;
nodes = (
"309 336 LINE SMOOTH",
"354 376 OFFCURVE",
"376 398 OFFCURVE",
"411 398 CURVE SMOOTH",
"446 398 OFFCURVE",
"468 372 OFFCURVE",
"512 321 CURVE SMOOTH",
"618 198 LINE",
"674 248 LINE",
"537 407 LINE SMOOTH",
"485 467 OFFCURVE",
"453 488 OFFCURVE",
"405 488 CURVE SMOOTH",
"349 488 OFFCURVE",
"311 459 OFFCURVE",
"262 415 CURVE SMOOTH",
"15 190 LINE",
"73 124 LINE"
);
},
{
closed = 1;
nodes = (
"392 139 LINE SMOOTH",
"416 162 OFFCURVE",
"432 173 OFFCURVE",
"440 173 CURVE SMOOTH",
"453 173 OFFCURVE",
"460 165 OFFCURVE",
"477 145 CURVE SMOOTH",
"590 15 LINE",
"646 63 LINE",
"506 223 LINE SMOOTH",
"475 258 OFFCURVE",
"459 278 OFFCURVE",
"435 278 CURVE SMOOTH",
"412 278 OFFCURVE",
"402 270 OFFCURVE",
"381 250 CURVE SMOOTH",
"196 80 LINE",
"256 15 LINE"
);
}
);
width = 689;
}
);
unicode = 1A11;
},
{
glyphname = uni1A12;
lastChange = "2017-09-14 20:51:29 +0000";
layers = (
{
layerId = UUID0;
paths = (
{
closed = 1;
nodes = (
"735 81 OFFCURVE",
"774 107 OFFCURVE",
"821 154 CURVE SMOOTH",
"905 237 LINE",
"842 300 LINE",
"741 202 LINE SMOOTH",
"718 179 OFFCURVE",
"692 171 OFFCURVE",
"673 171 CURVE SMOOTH",
"638 171 OFFCURVE",
"615 197 OFFCURVE",
"571 248 CURVE SMOOTH",
"496 335 LINE SMOOTH",
"452 387 OFFCURVE",
"421 413 OFFCURVE",
"364 413 CURVE SMOOTH",
"308 413 OFFCURVE",
"271 383 OFFCURVE",
"222 339 CURVE SMOOTH",
"15 152 LINE",
"73 86 LINE",
"295 283 LINE SMOOTH",
"312 298 OFFCURVE",
"336 322 OFFCURVE",
"370 322 CURVE SMOOTH",
"401 322 OFFCURVE",
"425 301 OFFCURVE",
"460 261 CURVE SMOOTH",
"547 162 LINE SMOOTH",
"594 109 OFFCURVE",
"622 81 OFFCURVE",
"678 81 CURVE SMOOTH"
);
},
{
closed = 1;
nodes = (
"1234 140 LINE",
"976 432 LINE SMOOTH",
"931 483 OFFCURVE",
"899 512 OFFCURVE",
"845 512 CURVE SMOOTH",
"789 512 OFFCURVE",
"749 483 OFFCURVE",
"701 438 CURVE SMOOTH",
"612 356 LINE",
"671 290 LINE",
"749 360 LINE SMOOTH",
"793 400 OFFCURVE",
"817 422 OFFCURVE",
"850 422 CURVE SMOOTH",
"885 422 OFFCURVE",
"908 395 OFFCURVE",
"952 345 CURVE SMOOTH",
"1179 86 LINE"
);
}
);
width = 1248;
}
);
unicode = 1A12;
},
{
glyphname = uni1A13;
lastChange = "2017-09-14 20:51:29 +0000";
layers = (
{
layerId = UUID0;
paths = (
{
closed = 1;
nodes = (
"272 232 LINE SMOOTH",
"313 280 OFFCURVE",
"328 295 OFFCURVE",
"349 295 CURVE SMOOTH",
"360 295 OFFCURVE",
"370 288 OFFCURVE",
"380 275 CURVE SMOOTH",
"506 108 LINE SMOOTH",
"547 54 OFFCURVE",
"570 21 OFFCURVE",
"615 21 CURVE SMOOTH",
"656 21 OFFCURVE",
"685 55 OFFCURVE",
"731 105 CURVE SMOOTH",
"846 232 LINE SMOOTH",
"886 277 OFFCURVE",
"900 295 OFFCURVE",
"923 295 CURVE SMOOTH",
"944 295 OFFCURVE",
"959 266 OFFCURVE",
"996 218 CURVE SMOOTH",
"1147 21 LINE",
"1204 64 LINE",
"1023 303 LINE SMOOTH",
"980 359 OFFCURVE",
"957 385 OFFCURVE",
"916 385 CURVE SMOOTH",
"879 385 OFFCURVE",
"847 366 OFFCURVE",
"798 311 CURVE SMOOTH",
"677 177 LINE SMOOTH",
"645 142 OFFCURVE",
"626 118 OFFCURVE",
"609 118 CURVE SMOOTH",
"587 118 OFFCURVE",
"572 143 OFFCURVE",
"538 187 CURVE SMOOTH",
"447 304 LINE SMOOTH",
"405 358 OFFCURVE",
"382 385 OFFCURVE",
"341 385 CURVE SMOOTH",
"304 385 OFFCURVE",
"274 366 OFFCURVE",
"224 311 CURVE SMOOTH",
"15 81 LINE",
"81 21 LINE"
);
}
);
width = 1219;
}
);
unicode = 1A13;
},
{
glyphname = uni1A14;
lastChange = "2017-09-14 20:51:29 +0000";
layers = (
{
layerId = UUID0;
paths = (
{
closed = 1;
nodes = (
"332 23 OFFCURVE",
"375 51 OFFCURVE",
"428 99 CURVE SMOOTH",
"535 197 LINE SMOOTH",
"554 214 OFFCURVE",
"562 227 OFFCURVE",
"562 236 CURVE SMOOTH",
"562 247 OFFCURVE",
"551 260 OFFCURVE",
"535 279 CURVE SMOOTH",
"456 371 LINE SMOOTH",
"415 418 OFFCURVE",
"373 463 OFFCURVE",
"304 463 CURVE SMOOTH",
"263 463 OFFCURVE",
"217 447 OFFCURVE",
"170 405 CURVE SMOOTH",
"41 289 LINE SMOOTH",
"24 273 OFFCURVE",
"15 260 OFFCURVE",
"15 250 CURVE SMOOTH",
"15 244 OFFCURVE",
"24 224 OFFCURVE",
"33 214 CURVE SMOOTH",
"142 94 LINE SMOOTH",
"186 46 OFFCURVE",
"213 23 OFFCURVE",
"273 23 CURVE SMOOTH"
);
},
{
closed = 1;
nodes = (
"246 113 OFFCURVE",
"207 131 OFFCURVE",
"189 152 CURVE SMOOTH",
"115 236 LINE",
"224 333 LINE SMOOTH",
"251 357 OFFCURVE",
"275 373 OFFCURVE",
"311 373 CURVE SMOOTH",
"354 373 OFFCURVE",
"392 333 OFFCURVE",
"461 250 CURVE",
"345 145 LINE SMOOTH",
"329 131 OFFCURVE",
"294 113 OFFCURVE",
"268 113 CURVE SMOOTH"
);
}
);
width = 576;
}
);
unicode = 1A14;
},
{
glyphname = uni1A15;
lastChange = "2017-09-14 20:51:29 +0000";
layers = (
{
layerId = UUID0;
paths = (
{
closed = 1;
nodes = (
"847 43 OFFCURVE",
"867 20 OFFCURVE",
"908 20 CURVE SMOOTH",
"943 20 OFFCURVE",
"971 40 OFFCURVE",
"971 88 CURVE SMOOTH",
"971 133 OFFCURVE",
"950 155 OFFCURVE",
"908 155 CURVE SMOOTH",
"867 155 OFFCURVE",
"847 133 OFFCURVE",
"847 88 CURVE SMOOTH"
);
},
{
closed = 1;
nodes = (
"272 232 LINE SMOOTH",
"313 280 OFFCURVE",
"328 295 OFFCURVE",
"349 295 CURVE SMOOTH",
"360 295 OFFCURVE",
"370 288 OFFCURVE",
"380 275 CURVE SMOOTH",
"506 108 LINE SMOOTH",
"547 54 OFFCURVE",
"570 21 OFFCURVE",
"615 21 CURVE SMOOTH",
"656 21 OFFCURVE",
"685 55 OFFCURVE",
"731 105 CURVE SMOOTH",
"846 232 LINE SMOOTH",
"886 277 OFFCURVE",
"900 295 OFFCURVE",
"923 295 CURVE SMOOTH",
"944 295 OFFCURVE",
"959 266 OFFCURVE",
"996 218 CURVE SMOOTH",
"1147 21 LINE",
"1204 64 LINE",
"1023 303 LINE SMOOTH",
"980 359 OFFCURVE",
"957 385 OFFCURVE",
"916 385 CURVE SMOOTH",
"879 385 OFFCURVE",
"847 366 OFFCURVE",
"798 311 CURVE SMOOTH",
"677 177 LINE SMOOTH",
"645 142 OFFCURVE",
"626 118 OFFCURVE",
"609 118 CURVE SMOOTH",
"588 118 OFFCURVE",
"570 146 OFFCURVE",
"538 187 CURVE SMOOTH",
"447 304 LINE SMOOTH",
"405 358 OFFCURVE",
"382 385 OFFCURVE",
"341 385 CURVE SMOOTH",
"304 385 OFFCURVE",
"274 366 OFFCURVE",
"224 311 CURVE SMOOTH",
"15 81 LINE",
"81 21 LINE"
);
}
);
width = 1216;
}
);
unicode = 1A15;
},
{
glyphname = uni1A16;
lastChange = "2017-09-14 20:51:29 +0000";
layers = (
{
layerId = UUID0;
paths = (
{
closed = 1;
nodes = (
"317 23 OFFCURVE",
"361 47 OFFCURVE",
"390 73 CURVE SMOOTH",
"518 185 LINE",
"579 117 LINE SMOOTH",
"633 56 OFFCURVE",
"661 23 OFFCURVE",
"731 23 CURVE SMOOTH",
"794 23 OFFCURVE",
"840 56 OFFCURVE",
"897 108 CURVE SMOOTH",
"993 197 LINE SMOOTH",
"1011 214 OFFCURVE",
"1020 227 OFFCURVE",
"1020 236 CURVE SMOOTH",
"1020 247 OFFCURVE",
"1010 259 OFFCURVE",
"993 279 CURVE SMOOTH",
"921 366 LINE SMOOTH",
"875 422 OFFCURVE",
"830 462 OFFCURVE",
"766 462 CURVE SMOOTH",
"701 462 OFFCURVE",
"659 430 OFFCURVE",
"600 377 CURVE SMOOTH",
"516 302 LINE",
"428 402 LINE SMOOTH",
"393 442 OFFCURVE",
"351 462 OFFCURVE",
"298 462 CURVE SMOOTH",
"266 462 OFFCURVE",
"218 450 OFFCURVE",
"170 406 CURVE SMOOTH",
"41 289 LINE SMOOTH",
"24 273 OFFCURVE",
"15 260 OFFCURVE",
"15 250 CURVE SMOOTH",
"15 244 OFFCURVE",
"21 228 OFFCURVE",
"28 220 CURVE SMOOTH",
"118 119 LINE SMOOTH",
"172 59 OFFCURVE",
"204 23 OFFCURVE",
"270 23 CURVE SMOOTH"
);
},
{
closed = 1;
nodes = (
"227 113 OFFCURVE",
"200 137 OFFCURVE",
"181 159 CURVE SMOOTH",
"115 235 LINE",
"194 308 LINE SMOOTH",
"251 360 OFFCURVE",
"274 372 OFFCURVE",
"310 372 CURVE SMOOTH",
"342 372 OFFCURVE",
"376 346 OFFCURVE",
"394 325 CURVE SMOOTH",
"459 252 LINE",
"352 157 LINE SMOOTH",
"327 134 OFFCURVE",
"298 113 OFFCURVE",
"265 113 CURVE SMOOTH"
);
},
{
closed = 1;
nodes = (
"697 113 OFFCURVE",
"666 131 OFFCURVE",
"651 148 CURVE SMOOTH",
"574 235 LINE",
"644 297 LINE SMOOTH",
"701 348 OFFCURVE",
"731 372 OFFCURVE",
"772 372 CURVE SMOOTH",
"801 372 OFFCURVE",
"840 351 OFFCURVE",
"888 290 CURVE SMOOTH",
"919 250 LINE",
"806 148 LINE SMOOTH",
"786 130 OFFCURVE",
"752 113 OFFCURVE",
"726 113 CURVE SMOOTH"
);
}
);
width = 1034;
}
);
unicode = 1A16;
},
{
glyphname = uni1A17;
lastChange = "2017-09-14 20:51:29 +0000";
layers = (
{
layerId = UUID0;
paths = (
{
closed = 1;
nodes = (
"-228 633 OFFCURVE",
"-200 653 OFFCURVE",
"-200 701 CURVE SMOOTH",
"-200 746 OFFCURVE",
"-221 768 OFFCURVE",
"-263 768 CURVE SMOOTH",
"-304 768 OFFCURVE",
"-324 746 OFFCURVE",
"-324 701 CURVE SMOOTH",
"-324 656 OFFCURVE",
"-304 633 OFFCURVE",
"-263 633 CURVE SMOOTH"
);
}
);
width = 0;
}
);
unicode = 1A17;
},
{
glyphname = uni1A18;
lastChange = "2017-09-14 20:51:29 +0000";
layers = (
{
layerId = UUID0;
paths = (
{
closed = 1;
nodes = (
"-232 -186 OFFCURVE",
"-204 -166 OFFCURVE",
"-204 -118 CURVE SMOOTH",
"-204 -73 OFFCURVE",
"-225 -51 OFFCURVE",
"-267 -51 CURVE SMOOTH",
"-308 -51 OFFCURVE",
"-328 -73 OFFCURVE",
"-328 -118 CURVE SMOOTH",
"-328 -163 OFFCURVE",
"-308 -186 OFFCURVE",
"-267 -186 CURVE SMOOTH"
);
}
);
width = 0;
}
);
unicode = 1A18;
},
{
glyphname = uni1A19;
lastChange = "2017-09-14 20:51:29 +0000";
layers = (
{
layerId = UUID0;
paths = (
{
closed = 1;
nodes = (
"381 6 LINE",
"190 212 LINE SMOOTH",
"165 239 OFFCURVE",
"150 252 OFFCURVE",
"150 269 CURVE SMOOTH",
"150 286 OFFCURVE",
"173 303 OFFCURVE",
"210 336 CURVE SMOOTH",
"322 436 LINE",
"262 501 LINE",
"106 362 LINE SMOOTH",
"69 329 OFFCURVE",
"54 310 OFFCURVE",
"54 282 CURVE SMOOTH",
"54 255 OFFCURVE",
"68 236 OFFCURVE",
"96 205 CURVE SMOOTH",
"322 -42 LINE"
);
}
);
width = 357;
}
);
unicode = 1A19;
},
{
glyphname = uni1A1A;
lastChange = "2017-09-14 20:51:29 +0000";
layers = (
{
layerId = UUID0;
paths = (
{
closed = 1;
nodes = (
"673 52 LINE",
"334 422 LINE SMOOTH",
"301 458 OFFCURVE",
"283 471 OFFCURVE",
"255 471 CURVE SMOOTH",
"231 471 OFFCURVE",
"212 459 OFFCURVE",
"175 424 CURVE SMOOTH",
"25 283 LINE",
"85 217 LINE",
"215 341 LINE SMOOTH",
"230 356 OFFCURVE",
"250 373 OFFCURVE",
"267 373 CURVE SMOOTH",
"276 373 OFFCURVE",
"292 357 OFFCURVE",
"318 328 CURVE SMOOTH",
"617 2 LINE"
);
}
);
width = 540;
}
);
unicode = 1A1A;
},
{
glyphname = uni1A1B;
lastChange = "2017-09-14 20:51:29 +0000";
layers = (
{
layerId = UUID0;
paths = (
{
closed = 1;
nodes = (
"-647 658 LINE SMOOTH",
"-623 677 OFFCURVE",
"-611 690 OFFCURVE",
"-611 716 CURVE SMOOTH",
"-611 729 OFFCURVE",
"-623 748 OFFCURVE",
"-645 774 CURVE SMOOTH",
"-827 983 LINE",
"-882 934 LINE",
"-721 748 LINE SMOOTH",
"-717 743 OFFCURVE",
"-714 742 OFFCURVE",
"-714 733 CURVE SMOOTH",
"-714 725 OFFCURVE",
"-723 714 OFFCURVE",
"-756 686 CURVE SMOOTH",
"-835 619 LINE",
"-778 552 LINE"
);
}
);
width = 0;
}
);
unicode = 1A1B;
},
{
glyphname = uni1A1E;
lastChange = "2017-09-14 20:51:29 +0000";
layers = (
{
layerId = UUID0;
paths = (
{
closed = 1;
nodes = (
"128 384 OFFCURVE",
"156 404 OFFCURVE",
"156 452 CURVE SMOOTH",
"156 497 OFFCURVE",
"135 519 OFFCURVE",
"93 519 CURVE SMOOTH",
"52 519 OFFCURVE",
"32 497 OFFCURVE",
"32 452 CURVE SMOOTH",
"32 407 OFFCURVE",
"52 384 OFFCURVE",
"93 384 CURVE SMOOTH"
);
},
{
closed = 1;
nodes = (
"446 1 OFFCURVE",
"474 21 OFFCURVE",
"474 69 CURVE SMOOTH",
"474 114 OFFCURVE",
"453 136 OFFCURVE",
"411 136 CURVE SMOOTH",
"370 136 OFFCURVE",
"350 114 OFFCURVE",
"350 69 CURVE SMOOTH",
"350 24 OFFCURVE",
"370 1 OFFCURVE",
"411 1 CURVE SMOOTH"
);
},
{
closed = 1;
nodes = (
"286 194 OFFCURVE",
"314 214 OFFCURVE",
"314 262 CURVE SMOOTH",
"314 307 OFFCURVE",
"293 329 OFFCURVE",
"251 329 CURVE SMOOTH",
"210 329 OFFCURVE",
"190 307 OFFCURVE",
"190 262 CURVE SMOOTH",
"190 217 OFFCURVE",
"210 194 OFFCURVE",
"251 194 CURVE SMOOTH"
);
}
);
width = 504;
}
);
unicode = 1A1E;
},
{
glyphname = uni1A1F;
lastChange = "2017-09-14 20:51:29 +0000";
layers = (
{
layerId = UUID0;
paths = (
{
closed = 1;
nodes = (
"184 361 LINE SMOOTH",
"228 402 OFFCURVE",
"251 423 OFFCURVE",
"286 423 CURVE SMOOTH",
"321 423 OFFCURVE",
"343 396 OFFCURVE",
"387 346 CURVE SMOOTH",
"434 293 LINE",
"489 342 LINE",
"420 423 LINE SMOOTH",
"389 460 OFFCURVE",
"358 497 OFFCURVE",
"316 508 CURVE",
"316 608 LINE",
"243 608 LINE",
"243 508 LINE",
"214 501 OFFCURVE",
"180 478 OFFCURVE",
"138 440 CURVE SMOOTH",
"49 359 LINE",
"108 293 LINE"
);
},
{
closed = 1;
nodes = (
"292 -43 LINE",
"292 44 LINE",
"321 52 OFFCURVE",
"357 75 OFFCURVE",
"400 114 CURVE SMOOTH",
"488 195 LINE",
"429 261 LINE",
"354 193 LINE SMOOTH",
"309 153 OFFCURVE",
"287 131 OFFCURVE",
"252 131 CURVE SMOOTH",
"219 131 OFFCURVE",
"201 153 OFFCURVE",
"190 165 CURVE SMOOTH",
"104 261 LINE",
"48 212 LINE",
"163 80 LINE SMOOTH",
"174 68 OFFCURVE",
"203 51 OFFCURVE",
"218 46 CURVE",
"218 -43 LINE"
);
}
);
width = 538;
}
);
unicode = 1A1F;
},
{
glyphname = uniA9CF;
lastChange = "2017-09-14 20:51:29 +0000";
layers = (
{
layerId = UUID0;
paths = (
{
closed = 1;
nodes = (
"391 550 OFFCURVE",
"381 552 OFFCURVE",
"369 552 CURVE SMOOTH",
"356 552 OFFCURVE",
"347 550 OFFCURVE",
"339 546 CURVE",
"339 515 OFFCURVE",
"316 499 OFFCURVE",
"270 499 CURVE SMOOTH",
"225 499 OFFCURVE",
"158 515 OFFCURVE",
"67 546 CURVE",
"63 532 OFFCURVE",
"62 520 OFFCURVE",
"62 509 CURVE SMOOTH",
"62 498 OFFCURVE",
"63 486 OFFCURVE",
"67 472 CURVE",
"164 394 OFFCURVE",
"228 255 OFFCURVE",
"228 122 CURVE SMOOTH",
"228 80 OFFCURVE",
"221 38 OFFCURVE",
"208 -3 CURVE",
"216 -8 OFFCURVE",
"227 -10 OFFCURVE",
"238 -10 CURVE SMOOTH",
"250 -10 OFFCURVE",
"259 -8 OFFCURVE",
"267 -3 CURVE",
"279 39 OFFCURVE",
"285 83 OFFCURVE",
"285 129 CURVE SMOOTH",
"285 239 OFFCURVE",
"250 343 OFFCURVE",
"194 425 CURVE",
"220 419 OFFCURVE",
"244 416 OFFCURVE",
"266 416 CURVE SMOOTH",
"350 416 OFFCURVE",
"398 462 OFFCURVE",
"398 546 CURVE"
);
}
);
width = 459;
}
);
note = jv_Pangrangkep;
unicode = A9CF;
},
{
glyphname = uni25CC;
lastChange = "2017-09-14 20:51:29 +0000";
layers = (
{
layerId = UUID0;
paths = (
{
closed = 1;
nodes = (
"480 466 OFFCURVE",
"472 475 OFFCURVE",
"455 475 CURVE SMOOTH",
"437 475 OFFCURVE",
"428 466 OFFCURVE",
"428 448 CURVE SMOOTH",
"428 431 OFFCURVE",
"437 422 OFFCURVE",
"455 422 CURVE SMOOTH",
"472 422 OFFCURVE",
"480 431 OFFCURVE",
"480 448 CURVE SMOOTH"
);
},
{
closed = 1;
nodes = (
"408 514 OFFCURVE",
"400 523 OFFCURVE",
"383 523 CURVE SMOOTH",
"364 523 OFFCURVE",
"355 514 OFFCURVE",
"355 496 CURVE SMOOTH",
"355 479 OFFCURVE",
"364 470 OFFCURVE",
"383 470 CURVE SMOOTH",
"400 470 OFFCURVE",
"408 479 OFFCURVE",
"408 496 CURVE SMOOTH"
);
},
{
closed = 1;
nodes = (
"529 393 OFFCURVE",
"520 402 OFFCURVE",
"503 402 CURVE SMOOTH",
"485 402 OFFCURVE",
"476 393 OFFCURVE",
"476 376 CURVE SMOOTH",
"476 358 OFFCURVE",
"485 349 OFFCURVE",
"502 349 CURVE SMOOTH",
"520 349 OFFCURVE",
"529 358 OFFCURVE",
"529 376 CURVE SMOOTH"
);
},
{
closed = 1;
nodes = (
"546 308 OFFCURVE",
"538 317 OFFCURVE",
"521 317 CURVE SMOOTH",
"503 317 OFFCURVE",
"494 308 OFFCURVE",
"494 291 CURVE SMOOTH",
"494 274 OFFCURVE",
"503 265 OFFCURVE",
"521 265 CURVE SMOOTH",
"538 265 OFFCURVE",
"546 274 OFFCURVE",
"546 291 CURVE SMOOTH"
);
},
{
closed = 1;
nodes = (
"323 531 OFFCURVE",
"314 540 OFFCURVE",
"297 540 CURVE SMOOTH",
"280 540 OFFCURVE",
"271 531 OFFCURVE",
"271 514 CURVE SMOOTH",
"271 496 OFFCURVE",
"280 487 OFFCURVE",
"297 487 CURVE SMOOTH",
"314 487 OFFCURVE",
"323 496 OFFCURVE",
"323 514 CURVE SMOOTH"
);
},
{
closed = 1;
nodes = (
"239 514 OFFCURVE",
"230 523 OFFCURVE",
"212 523 CURVE SMOOTH",
"195 523 OFFCURVE",
"186 514 OFFCURVE",
"186 496 CURVE SMOOTH",
"186 479 OFFCURVE",
"195 470 OFFCURVE",
"212 470 CURVE SMOOTH",
"230 470 OFFCURVE",
"239 479 OFFCURVE",
"239 496 CURVE SMOOTH"
);
},
{
closed = 1;
nodes = (
"529 224 OFFCURVE",
"520 233 OFFCURVE",
"502 233 CURVE SMOOTH",
"485 233 OFFCURVE",
"476 224 OFFCURVE",
"476 206 CURVE SMOOTH",
"476 189 OFFCURVE",
"485 180 OFFCURVE",
"502 180 CURVE SMOOTH",
"520 180 OFFCURVE",
"529 189 OFFCURVE",
"529 206 CURVE SMOOTH"
);
},
{
closed = 1;
nodes = (
"167 466 OFFCURVE",
"158 475 OFFCURVE",
"140 475 CURVE SMOOTH",
"123 475 OFFCURVE",
"114 466 OFFCURVE",
"114 447 CURVE SMOOTH",
"114 430 OFFCURVE",
"123 422 OFFCURVE",
"140 422 CURVE SMOOTH",
"158 422 OFFCURVE",
"167 431 OFFCURVE",
"167 448 CURVE SMOOTH"
);
},
{
closed = 1;
nodes = (
"480 151 OFFCURVE",
"472 160 OFFCURVE",
"455 160 CURVE SMOOTH",
"437 160 OFFCURVE",
"428 151 OFFCURVE",
"428 133 CURVE SMOOTH",
"428 116 OFFCURVE",
"437 107 OFFCURVE",
"455 107 CURVE SMOOTH",
"472 107 OFFCURVE",
"480 116 OFFCURVE",
"480 133 CURVE SMOOTH"
);
},
{
closed = 1;
nodes = (
"408 103 OFFCURVE",
"400 112 OFFCURVE",
"383 112 CURVE SMOOTH",
"364 112 OFFCURVE",
"355 103 OFFCURVE",
"355 85 CURVE SMOOTH",
"355 68 OFFCURVE",
"364 60 OFFCURVE",
"383 60 CURVE SMOOTH",
"400 60 OFFCURVE",
"408 68 OFFCURVE",
"408 85 CURVE SMOOTH"
);
},
{
closed = 1;
nodes = (
"118 393 OFFCURVE",
"109 402 OFFCURVE",
"92 402 CURVE SMOOTH",
"74 402 OFFCURVE",
"65 393 OFFCURVE",
"65 376 CURVE SMOOTH",
"65 358 OFFCURVE",
"74 349 OFFCURVE",
"93 349 CURVE SMOOTH",
"110 349 OFFCURVE",
"118 358 OFFCURVE",
"118 376 CURVE SMOOTH"
);
},
{
closed = 1;
nodes = (
"101 308 OFFCURVE",
"92 317 OFFCURVE",
"75 317 CURVE SMOOTH",
"57 317 OFFCURVE",
"48 308 OFFCURVE",
"48 291 CURVE SMOOTH",
"48 274 OFFCURVE",
"57 265 OFFCURVE",
"75 265 CURVE SMOOTH",
"92 265 OFFCURVE",
"101 274 OFFCURVE",
"101 291 CURVE SMOOTH"
);
},
{
closed = 1;
nodes = (
"323 86 OFFCURVE",
"314 95 OFFCURVE",
"297 95 CURVE SMOOTH",
"280 95 OFFCURVE",
"271 86 OFFCURVE",
"271 69 CURVE SMOOTH",
"271 51 OFFCURVE",
"280 42 OFFCURVE",
"297 42 CURVE SMOOTH",
"314 42 OFFCURVE",
"323 51 OFFCURVE",
"323 69 CURVE SMOOTH"
);
},
{
closed = 1;
nodes = (
"118 224 OFFCURVE",
"109 233 OFFCURVE",
"92 233 CURVE SMOOTH",
"74 233 OFFCURVE",
"65 224 OFFCURVE",
"65 206 CURVE SMOOTH",
"65 189 OFFCURVE",
"74 180 OFFCURVE",
"92 180 CURVE SMOOTH",
"109 180 OFFCURVE",
"118 189 OFFCURVE",
"118 206 CURVE SMOOTH"
);
},
{
closed = 1;
nodes = (
"239 104 OFFCURVE",
"230 112 OFFCURVE",
"212 112 CURVE SMOOTH",
"195 112 OFFCURVE",
"186 103 OFFCURVE",
"186 85 CURVE SMOOTH",
"186 68 OFFCURVE",
"195 60 OFFCURVE",
"212 60 CURVE SMOOTH",
"230 60 OFFCURVE",
"239 69 OFFCURVE",
"239 87 CURVE SMOOTH"
);
},
{
closed = 1;
nodes = (
"167 151 OFFCURVE",
"158 160 OFFCURVE",
"140 160 CURVE SMOOTH",
"123 160 OFFCURVE",
"114 151 OFFCURVE",
"114 133 CURVE SMOOTH",
"114 116 OFFCURVE",
"123 107 OFFCURVE",
"140 107 CURVE SMOOTH",
"158 107 OFFCURVE",
"167 116 OFFCURVE",
"167 133 CURVE SMOOTH"
);
}
